<mxfile host="Electron" agent="Mozilla/5.0 (Windows NT 10.0; Win64; x64) AppleWebKit/537.36 (KHTML, like Gecko) draw.io/27.0.9 Chrome/134.0.6998.205 Electron/35.4.0 Safari/537.36" version="27.0.9">
  <diagram name="Page-1" id="7BG_9MMl67D-Zg5t4IsN">
    <mxGraphModel dx="786" dy="644" grid="1" gridSize="10" guides="1" tooltips="1" connect="1" arrows="1" fold="1" page="1" pageScale="1" pageWidth="827" pageHeight="1169" math="0" shadow="0">
      <root>
        <mxCell id="0" />
        <mxCell id="1" parent="0" />
        <mxCell id="yBawiFvi-VmqbqgV1zDL-3" value="Use Case: Sistem Informasi Kelurahan" style="shape=umlFrame;whiteSpace=wrap;html=1;pointerEvents=0;recursiveResize=0;container=1;collapsible=0;width=286;height=30;" parent="1" vertex="1">
          <mxGeometry x="160" y="10" width="520" height="700" as="geometry" />
        </mxCell>
        <mxCell id="yBawiFvi-VmqbqgV1zDL-9" value="Mengelola Berita" style="ellipse;whiteSpace=wrap;html=1;" parent="yBawiFvi-VmqbqgV1zDL-3" vertex="1">
          <mxGeometry x="131" y="262" width="135" height="50" as="geometry" />
        </mxCell>
        <mxCell id="yBawiFvi-VmqbqgV1zDL-8" value="Login&amp;nbsp;" style="ellipse;whiteSpace=wrap;html=1;" parent="yBawiFvi-VmqbqgV1zDL-3" vertex="1">
          <mxGeometry x="42" y="150" width="120" height="50" as="geometry" />
        </mxCell>
        <mxCell id="ZJWMEAPo2UeiNjdtcSbl-30" value="Mengelola Struktur Organisasi" style="ellipse;whiteSpace=wrap;html=1;" parent="yBawiFvi-VmqbqgV1zDL-3" vertex="1">
          <mxGeometry x="131" y="325" width="135" height="50" as="geometry" />
        </mxCell>
        <mxCell id="ZJWMEAPo2UeiNjdtcSbl-31" value="Mengelola Data Anggota" style="ellipse;whiteSpace=wrap;html=1;" parent="yBawiFvi-VmqbqgV1zDL-3" vertex="1">
          <mxGeometry x="131" y="382" width="135" height="50" as="geometry" />
        </mxCell>
        <mxCell id="ZJWMEAPo2UeiNjdtcSbl-43" value="Mengelola Fasilitas" style="ellipse;whiteSpace=wrap;html=1;" parent="yBawiFvi-VmqbqgV1zDL-3" vertex="1">
          <mxGeometry x="131" y="439" width="135" height="50" as="geometry" />
        </mxCell>
        <mxCell id="uD_IMk9ixZXh_opMw10s-22" value="Melihat Berita" style="ellipse;whiteSpace=wrap;html=1;" parent="yBawiFvi-VmqbqgV1zDL-3" vertex="1">
          <mxGeometry x="299" y="132" width="135" height="50" as="geometry" />
        </mxCell>
        <mxCell id="uD_IMk9ixZXh_opMw10s-25" value="Melihat Sejarah" style="ellipse;whiteSpace=wrap;html=1;" parent="yBawiFvi-VmqbqgV1zDL-3" vertex="1">
          <mxGeometry x="299" y="190" width="135" height="50" as="geometry" />
        </mxCell>
        <mxCell id="uD_IMk9ixZXh_opMw10s-26" value="Melihat Struktur Organisasi" style="ellipse;whiteSpace=wrap;html=1;" parent="yBawiFvi-VmqbqgV1zDL-3" vertex="1">
          <mxGeometry x="299" y="252" width="135" height="50" as="geometry" />
        </mxCell>
        <mxCell id="uD_IMk9ixZXh_opMw10s-28" value="Melihat Visi-Misi" style="ellipse;whiteSpace=wrap;html=1;" parent="yBawiFvi-VmqbqgV1zDL-3" vertex="1">
          <mxGeometry x="292.5" y="309" width="135" height="50" as="geometry" />
        </mxCell>
        <mxCell id="uD_IMk9ixZXh_opMw10s-29" value="Melihat Fasilitas Kesehatan" style="ellipse;whiteSpace=wrap;html=1;" parent="yBawiFvi-VmqbqgV1zDL-3" vertex="1">
          <mxGeometry x="299" y="367" width="135" height="50" as="geometry" />
        </mxCell>
        <mxCell id="uD_IMk9ixZXh_opMw10s-30" value="Melihat Fasilitas Pendidikan" style="ellipse;whiteSpace=wrap;html=1;" parent="yBawiFvi-VmqbqgV1zDL-3" vertex="1">
          <mxGeometry x="299" y="430" width="135" height="50" as="geometry" />
        </mxCell>
        <mxCell id="uD_IMk9ixZXh_opMw10s-31" value="Melihat Fasilitas Ibadah" style="ellipse;whiteSpace=wrap;html=1;" parent="yBawiFvi-VmqbqgV1zDL-3" vertex="1">
          <mxGeometry x="299" y="490" width="135" height="50" as="geometry" />
        </mxCell>
        <mxCell id="uD_IMk9ixZXh_opMw10s-32" value="Melihat Fasilitas Balai Warga" style="ellipse;whiteSpace=wrap;html=1;" parent="yBawiFvi-VmqbqgV1zDL-3" vertex="1">
          <mxGeometry x="299" y="550" width="135" height="50" as="geometry" />
        </mxCell>
        <mxCell id="uD_IMk9ixZXh_opMw10s-33" value="Melihat Pelayanan" style="ellipse;whiteSpace=wrap;html=1;" parent="yBawiFvi-VmqbqgV1zDL-3" vertex="1">
          <mxGeometry x="299" y="610" width="135" height="50" as="geometry" />
        </mxCell>
        <mxCell id="omfPy4NMd1juXIM22Tbs-6" value="Logout" style="ellipse;whiteSpace=wrap;html=1;" parent="yBawiFvi-VmqbqgV1zDL-3" vertex="1">
          <mxGeometry x="138.5" y="497" width="120" height="50" as="geometry" />
        </mxCell>
        <mxCell id="omfPy4NMd1juXIM22Tbs-8" value="&amp;lt;&amp;lt;include&amp;gt;&amp;gt;" style="html=1;verticalAlign=bottom;labelBackgroundColor=none;endArrow=open;endFill=0;dashed=1;rounded=0;entryX=0.5;entryY=1;entryDx=0;entryDy=0;exitX=0.5;exitY=0;exitDx=0;exitDy=0;" parent="yBawiFvi-VmqbqgV1zDL-3" source="yBawiFvi-VmqbqgV1zDL-9" target="yBawiFvi-VmqbqgV1zDL-8" edge="1">
          <mxGeometry width="160" relative="1" as="geometry">
            <mxPoint x="2" y="310" as="sourcePoint" />
            <mxPoint x="162" y="310" as="targetPoint" />
          </mxGeometry>
        </mxCell>
        <mxCell id="omfPy4NMd1juXIM22Tbs-12" value="&lt;div&gt;Note: Semua fitur &quot;Mengelola&quot; hanya tersedia untuk Admin setelah login.&lt;/div&gt;&lt;div&gt;&lt;br&gt;&lt;/div&gt;" style="shape=note2;boundedLbl=1;whiteSpace=wrap;html=1;size=25;verticalAlign=top;align=center;" parent="yBawiFvi-VmqbqgV1zDL-3" vertex="1">
          <mxGeometry x="140" y="50" width="240" height="75" as="geometry" />
        </mxCell>
        <mxCell id="uD_IMk9ixZXh_opMw10s-61" style="rounded=0;orthogonalLoop=1;jettySize=auto;html=1;entryX=1;entryY=0.5;entryDx=0;entryDy=0;endArrow=none;startFill=0;" parent="1" source="yBawiFvi-VmqbqgV1zDL-13" target="uD_IMk9ixZXh_opMw10s-22" edge="1">
          <mxGeometry relative="1" as="geometry" />
        </mxCell>
        <mxCell id="uD_IMk9ixZXh_opMw10s-63" style="rounded=0;orthogonalLoop=1;jettySize=auto;html=1;entryX=1;entryY=0.5;entryDx=0;entryDy=0;endArrow=none;startFill=0;" parent="1" source="yBawiFvi-VmqbqgV1zDL-13" target="uD_IMk9ixZXh_opMw10s-25" edge="1">
          <mxGeometry relative="1" as="geometry" />
        </mxCell>
        <mxCell id="uD_IMk9ixZXh_opMw10s-64" style="rounded=0;orthogonalLoop=1;jettySize=auto;html=1;entryX=1;entryY=0.5;entryDx=0;entryDy=0;endArrow=none;startFill=0;" parent="1" source="yBawiFvi-VmqbqgV1zDL-13" target="uD_IMk9ixZXh_opMw10s-26" edge="1">
          <mxGeometry relative="1" as="geometry" />
        </mxCell>
        <mxCell id="uD_IMk9ixZXh_opMw10s-66" style="rounded=0;orthogonalLoop=1;jettySize=auto;html=1;entryX=1;entryY=0.5;entryDx=0;entryDy=0;endArrow=none;startFill=0;" parent="1" source="yBawiFvi-VmqbqgV1zDL-13" target="uD_IMk9ixZXh_opMw10s-28" edge="1">
          <mxGeometry relative="1" as="geometry" />
        </mxCell>
        <mxCell id="uD_IMk9ixZXh_opMw10s-67" style="rounded=0;orthogonalLoop=1;jettySize=auto;html=1;entryX=1;entryY=0.5;entryDx=0;entryDy=0;endArrow=none;startFill=0;" parent="1" source="yBawiFvi-VmqbqgV1zDL-13" target="uD_IMk9ixZXh_opMw10s-29" edge="1">
          <mxGeometry relative="1" as="geometry" />
        </mxCell>
        <mxCell id="uD_IMk9ixZXh_opMw10s-68" style="rounded=0;orthogonalLoop=1;jettySize=auto;html=1;entryX=1;entryY=0.5;entryDx=0;entryDy=0;endArrow=none;startFill=0;" parent="1" source="yBawiFvi-VmqbqgV1zDL-13" target="uD_IMk9ixZXh_opMw10s-30" edge="1">
          <mxGeometry relative="1" as="geometry" />
        </mxCell>
        <mxCell id="uD_IMk9ixZXh_opMw10s-69" style="rounded=0;orthogonalLoop=1;jettySize=auto;html=1;entryX=1;entryY=0.5;entryDx=0;entryDy=0;endArrow=none;startFill=0;" parent="1" source="yBawiFvi-VmqbqgV1zDL-13" target="uD_IMk9ixZXh_opMw10s-31" edge="1">
          <mxGeometry relative="1" as="geometry" />
        </mxCell>
        <mxCell id="uD_IMk9ixZXh_opMw10s-70" style="rounded=0;orthogonalLoop=1;jettySize=auto;html=1;entryX=1;entryY=0.5;entryDx=0;entryDy=0;endArrow=none;startFill=0;" parent="1" source="yBawiFvi-VmqbqgV1zDL-13" target="uD_IMk9ixZXh_opMw10s-32" edge="1">
          <mxGeometry relative="1" as="geometry" />
        </mxCell>
        <mxCell id="uD_IMk9ixZXh_opMw10s-71" style="rounded=0;orthogonalLoop=1;jettySize=auto;html=1;entryX=1;entryY=0.5;entryDx=0;entryDy=0;endArrow=none;startFill=0;" parent="1" source="yBawiFvi-VmqbqgV1zDL-13" target="uD_IMk9ixZXh_opMw10s-33" edge="1">
          <mxGeometry relative="1" as="geometry" />
        </mxCell>
        <mxCell id="yBawiFvi-VmqbqgV1zDL-13" value="Warga" style="shape=umlActor;verticalLabelPosition=bottom;verticalAlign=top;html=1;outlineConnect=0;" parent="1" vertex="1">
          <mxGeometry x="780" y="360" width="30" height="60" as="geometry" />
        </mxCell>
        <mxCell id="ZJWMEAPo2UeiNjdtcSbl-35" style="rounded=0;orthogonalLoop=1;jettySize=auto;html=1;entryX=0;entryY=0.5;entryDx=0;entryDy=0;endArrow=none;startFill=0;" parent="1" source="yBawiFvi-VmqbqgV1zDL-14" target="ZJWMEAPo2UeiNjdtcSbl-30" edge="1">
          <mxGeometry relative="1" as="geometry" />
        </mxCell>
        <mxCell id="ZJWMEAPo2UeiNjdtcSbl-36" style="rounded=0;orthogonalLoop=1;jettySize=auto;html=1;entryX=0;entryY=0.5;entryDx=0;entryDy=0;endArrow=none;startFill=0;" parent="1" source="yBawiFvi-VmqbqgV1zDL-14" target="ZJWMEAPo2UeiNjdtcSbl-31" edge="1">
          <mxGeometry relative="1" as="geometry" />
        </mxCell>
        <mxCell id="ZJWMEAPo2UeiNjdtcSbl-47" style="rounded=0;orthogonalLoop=1;jettySize=auto;html=1;entryX=0;entryY=0.5;entryDx=0;entryDy=0;endArrow=none;startFill=0;" parent="1" source="yBawiFvi-VmqbqgV1zDL-14" target="ZJWMEAPo2UeiNjdtcSbl-43" edge="1">
          <mxGeometry relative="1" as="geometry" />
        </mxCell>
        <mxCell id="omfPy4NMd1juXIM22Tbs-7" style="rounded=0;orthogonalLoop=1;jettySize=auto;html=1;entryX=0;entryY=0.5;entryDx=0;entryDy=0;endArrow=none;startFill=0;" parent="1" source="yBawiFvi-VmqbqgV1zDL-14" target="omfPy4NMd1juXIM22Tbs-6" edge="1">
          <mxGeometry relative="1" as="geometry" />
        </mxCell>
        <mxCell id="yBawiFvi-VmqbqgV1zDL-14" value="Admin" style="shape=umlActor;verticalLabelPosition=bottom;verticalAlign=top;html=1;outlineConnect=0;" parent="1" vertex="1">
          <mxGeometry x="30" y="335" width="30" height="60" as="geometry" />
        </mxCell>
        <mxCell id="yBawiFvi-VmqbqgV1zDL-19" style="rounded=0;orthogonalLoop=1;jettySize=auto;html=1;entryX=0;entryY=0.5;entryDx=0;entryDy=0;endArrow=none;startFill=0;" parent="1" source="yBawiFvi-VmqbqgV1zDL-14" target="yBawiFvi-VmqbqgV1zDL-8" edge="1">
          <mxGeometry relative="1" as="geometry" />
        </mxCell>
        <mxCell id="yBawiFvi-VmqbqgV1zDL-20" style="rounded=0;orthogonalLoop=1;jettySize=auto;html=1;entryX=0;entryY=0.5;entryDx=0;entryDy=0;endArrow=none;startFill=0;" parent="1" source="yBawiFvi-VmqbqgV1zDL-14" target="yBawiFvi-VmqbqgV1zDL-9" edge="1">
          <mxGeometry relative="1" as="geometry" />
        </mxCell>
      </root>
    </mxGraphModel>
  </diagram>
</mxfile>
